<svg aria-hidden="true" style="position: absolute; width: 0; height: 0; overflow: hidden;" version="1.1" xmlns="http://www.w3.org/2000/svg" xmlns:xlink="http://www.w3.org/1999/xlink">
<defs>
<symbol id="quotes" viewBox="0 0 32 32">
<path d="M6.139 2.105c-3.39 0-6.139 2.828-6.139 6.316s2.748 6.316 6.139 6.316c6.138 0 2.046 12.211-6.139 12.211v2.947c14.607 0 20.331-27.79 6.139-27.79zM23.823 2.105c-3.39 0-6.139 2.828-6.139 6.316s2.748 6.316 6.139 6.316c6.138 0 2.046 12.211-6.139 12.211v2.947c14.607 0 20.331-27.79 6.139-27.79z"></path>
</symbol>
<symbol id="graduate-diploma" viewBox="0 0 32 32">
<path d="M5.818 17.745v5.818l10.182 5.527 10.182-5.527v-5.818l-10.182 5.527-10.182-5.527zM16 2.909l-16 8.727 16 8.727 13.091-7.127v10.036h2.909v-11.636l-16-8.727z"></path>
</symbol>
<symbol id="up-circle" viewBox="0 0 32 32">
<path d="M6 18.8l10-10 10 10-2.8 2.8-7.2-7.2-7.2 7.2z"></path>
<path d="M30 16c0 7.8-6.2 14-14 14s-14-6.2-14-14 6.2-14 14-14 14 6.2 14 14zM32 16c0-8.8-7.2-16-16-16s-16 7.2-16 16 7.2 16 16 16 16-7.2 16-16v0z"></path>
</symbol>
<symbol id="check-fat" viewBox="0 0 32 32">
<path d="M30.803 4.216c-1.595-1.627-4.181-1.627-5.777 0l-14.442 14.73-3.611-3.683c-1.595-1.627-4.181-1.627-5.777 0s-1.595 4.265 0 5.892l6.499 6.629c1.595 1.627 4.181 1.627 5.777 0l17.331-17.675c1.596-1.627 1.596-4.265 0-5.893z"></path>
</symbol>
<symbol id="diploma" viewBox="0 0 32 32">
<path d="M31.986 9.96c-0.088-0.506 0.084-1.014-0.076-1.434-0.007-0.162-0.014-0.251-0.015-0.34-0.035-1.658-0.459-3.238-0.982-4.795-0.103-0.307-0.258-0.607-0.442-0.874-0.319-0.463-1.019-0.495-1.401-0.096-0.493 0.515-0.988 1.028-1.483 1.541-0.1 0.104-0.208 0.112-0.302 0.002-0.915-1.069-2.077-1.768-3.378-2.258-0.421-0.159-0.846-0.273-1.304-0.268-0.325 0.004-0.657-0.026-0.975-0.092-0.322-0.067-0.591 0.014-0.848 0.178s-0.444 0.393-0.568 0.675c-0.108 0.244-0.209 0.495-0.35 0.721-0.554 0.884-1.119 1.761-1.688 2.635-0.162 0.248-0.34 0.488-0.533 0.713-0.33 0.385-0.666 0.766-1.019 1.129-0.582 0.599-1.175 1.187-1.773 1.77-0.491 0.479-1.017 0.922-1.49 1.417-0.746 0.78-1.56 1.468-2.454 2.075-2.49 1.694-4.976 3.395-7.323 5.289-0.205 0.165-0.463 0.264-0.694 0.399-0.178 0.104-0.368 0.197-0.524 0.329-0.271 0.231-0.52 0.488-0.778 0.734-0.435 0.415-0.826 0.864-1.059 1.426-0.418 1.009-0.475 2.081-0.525 3.153-0.005 0.088 0.004 0.181 0.029 0.265 0.205 0.715 0.393 1.436 0.631 2.14 0.162 0.48 0.42 0.918 0.739 1.321 0.793 1.004 1.792 1.739 2.921 2.316 0.292 0.149 0.595 0.256 0.931 0.289 0.592 0.058 1.178 0.202 1.769 0.228 0.841 0.038 1.668-0.062 2.383-0.583 0.12-0.088 0.246-0.168 0.367-0.255 0.87-0.633 1.546-1.487 2.422-2.114 0.095-0.067 0.164-0.172 0.245-0.26 0.625-0.68 1.232-1.378 1.881-2.035 0.525-0.532 1.024-1.082 1.457-1.692 0.822-1.156 1.887-2.061 3.026-2.884 0.159-0.115 0.354-0.1 0.474 0.075 0.23 0.335 0.521 0.55 0.921 0.645 0.195 0.046 0.246 0.214 0.184 0.433-0.049 0.172-0.11 0.34-0.162 0.511-0.428 1.411-0.578 2.854-0.573 4.325 0.003 0.934 0.303 1.743 0.799 2.515 0.328 0.511 0.814 0.868 1.188 1.331 0.062 0.077 0.213 0.11 0.325 0.114 0.177 0.007 0.357-0.022 0.534-0.043 0.438-0.052 0.589-0.205 0.6-0.618 0.012-0.447 0.010-0.894 0.020-1.341 0.002-0.086 0.021-0.177 0.056-0.255 0.019-0.042 0.093-0.095 0.132-0.088 0.113 0.022 0.229 0.056 0.33 0.112 0.365 0.201 0.717 0.428 1.088 0.617 0.408 0.208 0.838 0.016 1.026-0.405 0.148-0.33 0.135-0.63-0.069-0.927-0.085-0.122-0.168-0.247-0.237-0.378-0.020-0.038 0.006-0.106 0.023-0.156 0.007-0.020 0.049-0.044 0.071-0.040 0.087 0.017 0.172 0.058 0.26 0.064 0.528 0.039 0.859-0.291 0.804-0.802-0.019-0.174-0.136-0.385-0.072-0.508 0.108-0.207 0.374-0.106 0.576-0.127 0.414-0.044 0.829-0.085 1.242-0.131 0.185-0.021 0.349-0.090 0.429-0.274 0.106-0.241 0.070-0.468-0.099-0.666-0.076-0.090-0.168-0.173-0.268-0.234-0.748-0.455-1.341-1.086-1.962-1.688-0.758-0.733-1.331-1.604-1.892-2.486-0.187-0.294-0.228-0.6-0.171-0.94 0.065-0.382 0.093-0.769 0.144-1.153 0.079-0.59-0.062-1.124-0.398-1.611-0.068-0.098-0.143-0.191-0.208-0.291-0.102-0.159-0.089-0.263 0.064-0.385 0.979-0.781 1.945-1.579 2.946-2.33 0.815-0.611 1.725-1.062 2.71-1.339 0.349-0.098 0.673-0.238 0.973-0.439 0.294-0.197 0.526-0.488 0.9-0.565 0.072-0.015 0.142-0.11 0.183-0.184 0.193-0.343 0.359-0.732 0.295-1.103zM17.813 13.124c0.010-0.006 0.022-0.010 0.034-0.012 0.008-0.011 0.017-0.023 0.025-0.034 0.010-0.004 0.023-0.006 0.037-0.007 0.015-0.036 0.030-0.071 0.045-0.106 0.088 0.11 0.013 0.102-0.045 0.106-0.004 0.010-0.008 0.020-0.013 0.030-0.016 0.004-0.033 0.007-0.049 0.010-0.018 0.024-0.035 0.048-0.052 0.072 0.006-0.021 0.005-0.051 0.018-0.060zM16.95 9.369c0.047 0.017 0.095 0.036 0.142 0.054-0.020 0.017-0.043 0.052-0.059 0.049-0.049-0.009-0.096-0.032-0.143-0.050 0.020-0.017 0.040-0.035 0.061-0.052zM5.832 17.941c0.017-0.024 0.040-0.044 0.064-0.061 2.12-1.439 4.241-2.875 6.358-4.319 0.344-0.235 0.666-0.503 1.002-0.749 0.070-0.052 0.158-0.078 0.231-0.113 0.067 0.024 0.132 0.031 0.177 0.065 0.766 0.57 1.513 1.162 2.15 1.88 0.095 0.107 0.076 0.214-0.022 0.31-0.68 0.674-1.446 1.244-2.221 1.798-0.485 0.346-0.99 0.665-1.497 0.977-0.252 0.155-0.527 0.275-0.798 0.396-0.408 0.184-0.818 0.361-1.232 0.529-0.359 0.146-0.573 0.389-0.658 0.777-0.038 0.177-0.019 0.29 0.123 0.374 0.499 0.295 0.882 0.703 1.189 1.19 0.143 0.227 0.142 0.255-0.043 0.46-0.2 0.221-0.39 0.452-0.604 0.659-0.205 0.2-0.286 0.539-0.636 0.578-0.187-0.221-0.121-0.508-0.191-0.761-0.258-0.929-0.636-1.794-1.267-2.537-0.115-0.135-0.212-0.287-0.3-0.441-0.324-0.556-0.763-0.908-1.447-0.856-0.116 0.008-0.235-0.019-0.352-0.035-0.022-0.003-0.058-0.028-0.059-0.044-0.001-0.026 0.018-0.056 0.035-0.080zM7.030 24.613c-0.138 0.167-0.296 0.287-0.524 0.279-0.293-0.010-0.588-0.004-0.879-0.042-0.094-0.012-0.196-0.125-0.25-0.218-0.024-0.041 0.045-0.164 0.102-0.22 0.591-0.574 1.186-1.142 1.785-1.708 0.030-0.029 0.102-0.019 0.153-0.014 0.014 0.001 0.031 0.051 0.032 0.078 0.003 0.117 0.002 0.235 0.002 0.298 0.040 0.602-0.063 1.11-0.421 1.545zM10.479 27.071c-0.274 0.271-0.502 0.607-0.816 0.814-0.519 0.341-1.089 0.605-1.644 0.89-0.101 0.052-0.23 0.061-0.347 0.071-1.53 0.127-2.88-0.312-4.049-1.305-0.369-0.313-0.644-0.695-0.831-1.146-0.425-1.025-0.717-2.098-0.772-3.194-0.051-1.014 0.147-2.019 0.931-2.796 0.24-0.238 0.511-0.425 0.833-0.495 0.789-0.172 1.587-0.225 2.389-0.063 0.156 0.031 0.279 0.103 0.348 0.247 0.090 0.188 0.177 0.377 0.253 0.57 0.078 0.2 0.035 0.295-0.148 0.462-0.33 0.3-0.663 0.597-0.975 0.913-0.544 0.551-1.063 1.125-1.72 1.553-0.369 0.241-0.604 0.57-0.534 1.049 0.036 0.245 0.136 0.454 0.306 0.63 0.041 0.043 0.090 0.078 0.136 0.116 0.366 0.302 0.733 0.604 1.099 0.906 0.443 0.037 0.886 0.070 1.329 0.111 0.148 0.014 0.294 0.057 0.441 0.065 0.764 0.042 1.477-0.115 2.121-0.547 0.748-0.502 1.424-1.077 1.913-1.847 0.112-0.176 0.232-0.347 0.361-0.51 0.052-0.065 0.139-0.103 0.211-0.153 0.039 0.066 0.104 0.129 0.112 0.199 0.031 0.296 0.045 0.593 0.066 0.891 0.080 1.022-0.296 1.861-1.012 2.569zM18.050 19.268c-0.347 0.154-0.525 0.473-0.762 0.737-0.258 0.288-0.536 0.558-0.804 0.837-0.288 0.302-0.599 0.586-0.855 0.914-0.405 0.517-0.864 0.982-1.305 1.466-0.22 0.241-0.405 0.514-0.614 0.765-0.054 0.064-0.141 0.099-0.214 0.147-0.039-0.071-0.103-0.138-0.112-0.212-0.045-0.354-0.086-0.709-0.11-1.065-0.071-1.047-0.466-1.96-1.118-2.772-0.093-0.116-0.189-0.231-0.277-0.351-0.091-0.123-0.032-0.231 0.070-0.3 0.197-0.134 0.4-0.261 0.609-0.372 1.027-0.547 2.022-1.147 2.968-1.825 0.411-0.295 0.809-0.609 1.211-0.917 0.179-0.137 0.31-0.116 0.433 0.081 0.063 0.101 0.132 0.201 0.175 0.311 0.279 0.721 0.552 1.445 0.825 2.169 0.020 0.054 0.022 0.116 0.034 0.188-0.047 0.063-0.083 0.168-0.153 0.199zM20.040 17.040c-0.027 0.029-0.115 0.043-0.138 0.023-0.065-0.058-0.115-0.134-0.162-0.209-0.319-0.501-0.633-1.005-0.955-1.503-0.182-0.282-0.127-0.54 0.179-0.732 0.035-0.022 0.125-0.015 0.15 0.014 0.445 0.521 0.881 1.050 1.031 1.745 0.031 0.143 0.042 0.29 0.059 0.417-0.065 0.101-0.104 0.183-0.164 0.246zM19.554 11.373c0.020-0.016 0.044-0.047 0.061-0.043 0.049 0.010 0.095 0.035 0.143 0.054-0.042 0.027-0.081 0.065-0.127 0.074-0.019 0.003-0.051-0.056-0.076-0.086zM20.193 14.716c0-0.015 0.001-0.030 0.001-0.045-0.114-0.076-0.171-0.18-0.154-0.321-0.004-0.001-0.006-0.003-0.011-0.004 0.001-0.004 0-0.007 0.001-0.011-0.203 0.005-0.296-0.14-0.371-0.294-0.018-0.036 0.013-0.116 0.047-0.15 0.023-0.024 0.109-0.026 0.135-0.002 0.129 0.118 0.227 0.256 0.189 0.446 0.004 0 0.006 0.002 0.010 0.001-0.001 0.005 0 0.009-0 0.014 0.186 0.047 0.16 0.189 0.154 0.321 0.008 0.006 0.014 0.012 0.023 0.017 0.014 0.021 0.025 0.044 0.041 0.063 0.009 0.011 0.026 0.015 0.039 0.022-0.035-0.019-0.070-0.038-0.105-0.057zM19.87 10.808c0.021-0.044 0.033-0.090 0.045-0.090 0.046-0.001 0.111-0.003 0.135 0.025 0.052 0.059 0.097 0.134 0.115 0.209 0.008 0.035-0.047 0.108-0.088 0.123-0.038 0.014-0.12-0.012-0.139-0.046-0.039-0.070-0.050-0.157-0.068-0.222zM18.294 8.071c-0.161-0.043-0.176-0.123-0.062-0.254 0.117-0.134 0.233-0.271 0.362-0.394 0.37-0.353 0.653-0.767 0.914-1.203 0.335-0.561 0.68-1.117 1.036-1.666 0.144-0.222 0.325-0.42 0.493-0.626 0.131-0.161 0.32-0.298 0.388-0.481 0.167-0.449 0.435-0.611 0.703-0.494 1.709 0.205 2.983 0.788 3.814 2.143 0.168 0.273 0.173 0.332-0.036 0.529-1.364 1.285-2.728 2.569-4.093 3.853-0.043 0.041-0.087 0.081-0.132 0.121-0.132 0.116-0.273 0.113-0.4 0.003-0.871-0.755-1.882-1.234-2.988-1.531zM20.561 12.996c0.028-0.28 0.285-0.436 0.514-0.578 0.032-0.020 0.113 0.005 0.153 0.035 0.044 0.033 0.074 0.091 0.096 0.144 0.313 0.75 0.398 1.551 0.541 2.297-0.054 0.121-0.086 0.194-0.118 0.267-0.040-0.041-0.093-0.076-0.117-0.124-0.143-0.295-0.272-0.597-0.422-0.888-0.123-0.237-0.273-0.461-0.407-0.693-0.089-0.152-0.254-0.316-0.239-0.46zM21.066 18.436c0.417-0.377 0.851-0.736 1.282-1.098 0.037-0.031 0.108-0.049 0.154-0.037 0.421 0.114 0.724 0.551 0.715 1.047-0.043 0.5-0.234 0.946-0.694 1.249-0.107 0.070-0.263 0.050-0.302-0.058-0.070-0.195-0.128-0.394-0.196-0.589-0.029-0.083-0.061-0.166-0.106-0.24-0.1-0.166-0.417-0.207-0.544-0.063-0.116 0.132-0.21 0.283-0.317 0.422-0.012 0.016-0.054 0.030-0.065 0.022-0.022-0.017-0.039-0.047-0.045-0.075-0.050-0.211-0.047-0.429 0.118-0.579zM24.029 27.178c-0.079-0.008-0.174 0.008-0.234-0.029-0.176-0.11-0.337-0.243-0.506-0.365-0.096-0.070-0.189-0.146-0.293-0.202-0.352-0.189-0.77 0.006-0.789 0.41-0.025 0.55-0.28 1.025-0.417 1.538-0.006 0.025-0.046 0.066-0.050 0.064-0.050-0.029-0.118-0.055-0.14-0.101-0.091-0.186-0.168-0.378-0.251-0.567-0.167-0.378-0.201-0.721 0.157-1.034 0.175-0.153 0.293-0.373 0.427-0.569 0.108-0.157 0.102-0.378-0.010-0.499-0.131-0.143-0.299-0.196-0.485-0.136-0.112 0.036-0.22 0.094-0.318 0.16-0.069 0.046-0.116 0.053-0.134-0.031-0.011-0.051 0.001-0.128 0.035-0.163 0.142-0.15 0.287-0.3 0.448-0.428 0.232-0.184 0.551-0.346 0.459-0.688-0.079-0.292-0.401-0.302-0.67-0.339-0.144-0.019-0.204-0.262-0.088-0.352 0.208-0.162 0.435-0.3 0.644-0.46 0.151-0.115 0.095-0.366-0.093-0.425-0.166-0.052-0.409-0.031-0.493-0.139-0.159-0.206 0.074-0.433 0.093-0.661 0.007-0.086 0.067-0.166 0.088-0.252 0.058-0.236 0.218-0.341 0.447-0.365 0.148-0.016 0.296-0.031 0.475-0.050 0.054 0.029 0.151 0.051 0.198 0.112 0.196 0.249 0.371 0.477 0.394 0.848 0.093 1.46 0.478 2.863 0.974 4.236 0.040 0.112 0.094 0.219 0.13 0.332 0.015 0.047 0.001 0.103 0 0.155zM23.904 21.070c0.14 0.192 0.28 0.386 0.396 0.593 0.443 0.788 1.012 1.473 1.669 2.089 0.196 0.183 0.387 0.372 0.573 0.566 0.092 0.095 0.271 0.185 0.17 0.34-0.043 0.067-0.22 0.048-0.364 0.073-0.152-0.037-0.322-0.083-0.495-0.118-0.4-0.082-0.698 0.109-0.787 0.515-0.038 0.172-0.034 0.353-0.066 0.527-0.007 0.040-0.082 0.088-0.129 0.092-0.049 0.005-0.124-0.026-0.15-0.066-0.065-0.098-0.129-0.205-0.157-0.318-0.214-0.895-0.564-1.757-0.618-2.692-0.013-0.225-0.145-0.449-0.243-0.664-0.13-0.286-0.142-0.576-0.063-0.872 0.013-0.048 0.066-0.108 0.111-0.119s0.125 0.017 0.152 0.054zM30.202 9.961c-0.418 0.225-0.823 0.48-1.258 0.664-1.832 0.778-3.454 1.858-4.839 3.29-0.124 0.127-0.261 0.242-0.395 0.358-0.067 0.059-0.195 0.022-0.219-0.056-0.008-0.028-0.029-0.053-0.033-0.080-0.12-0.952-0.403-1.859-0.809-2.724-0.12-0.255-0.113-0.432 0.095-0.629 0.844-0.797 1.667-1.617 2.519-2.406 1.377-1.274 2.728-2.573 3.963-3.987 0.137-0.157 0.28-0.309 0.421-0.463 0.117-0.127 0.204-0.117 0.26 0.030 0.053 0.138 0.116 0.277 0.143 0.42 0.173 0.935 0.352 1.868 0.497 2.807 0.063 0.41 0.051 0.831 0.071 1.209 0 0.277-0.020 0.517 0.004 0.753 0.038 0.371-0.095 0.638-0.419 0.813z"></path>
</symbol>
<symbol id="viber" viewBox="0 0 32 32">
<path d="M15.198 0.005c-2.568 0.031-8.089 0.453-11.177 3.286-2.297 2.276-3.099 5.641-3.193 9.802-0.078 4.146-0.172 11.932 7.333 14.052v3.229c0 0-0.047 1.292 0.807 1.557 1.052 0.333 1.651-0.661 2.651-1.729l1.865-2.109c5.135 0.427 9.068-0.557 9.521-0.703 1.042-0.333 6.911-1.083 7.87-8.87 0.984-8.042-0.479-13.109-3.12-15.401h-0.016c-0.797-0.734-4-3.068-11.156-3.094 0 0-0.531-0.036-1.385-0.021zM15.286 2.266c0.729-0.005 1.172 0.026 1.172 0.026 6.057 0.016 8.948 1.839 9.63 2.453 2.224 1.906 3.37 6.474 2.531 13.188-0.797 6.51-5.557 6.922-6.438 7.203-0.375 0.12-3.839 0.974-8.203 0.693 0 0-3.25 3.922-4.266 4.932-0.161 0.177-0.349 0.229-0.469 0.203-0.172-0.042-0.224-0.255-0.214-0.547l0.031-5.359c-6.365-1.76-5.99-8.401-5.922-11.87 0.078-3.469 0.729-6.307 2.667-8.229 2.609-2.359 7.297-2.677 9.479-2.693zM15.766 5.734c-0.219-0.005-0.401 0.177-0.401 0.396 0 0.224 0.182 0.401 0.401 0.401 2.005-0.036 3.938 0.724 5.375 2.12 1.453 1.411 2.161 3.307 2.188 5.786 0 0.219 0.177 0.401 0.401 0.401v-0.016c0.219 0 0.401-0.177 0.401-0.396 0.099-2.359-0.776-4.651-2.417-6.349-1.583-1.547-3.589-2.344-5.948-2.344zM10.495 6.651c-0.281-0.042-0.573 0.016-0.818 0.161h-0.021c-0.542 0.318-1.047 0.719-1.526 1.255-0.365 0.422-0.563 0.849-0.615 1.26-0.031 0.245-0.010 0.49 0.063 0.724l0.026 0.016c0.411 1.208 0.948 2.37 1.604 3.464 0.844 1.536 1.885 2.958 3.094 4.229l0.036 0.052 0.057 0.042 0.036 0.042 0.042 0.036c1.276 1.214 2.698 2.255 4.24 3.109 1.76 0.958 2.828 1.411 3.469 1.599v0.010c0.188 0.057 0.359 0.083 0.531 0.083 0.547-0.042 1.063-0.26 1.469-0.63 0.521-0.469 0.932-0.984 1.24-1.531v-0.010c0.307-0.578 0.203-1.125-0.24-1.495-0.885-0.776-1.849-1.464-2.865-2.057-0.682-0.37-1.375-0.146-1.656 0.229l-0.599 0.755c-0.307 0.375-0.865 0.323-0.865 0.323l-0.016 0.010c-4.161-1.063-5.271-5.276-5.271-5.276s-0.052-0.573 0.333-0.865l0.75-0.604c0.359-0.292 0.609-0.984 0.224-1.667-0.589-1.021-1.276-1.979-2.052-2.865-0.167-0.208-0.406-0.349-0.672-0.401zM16.458 7.839c-0.531 0-0.531 0.802 0.005 0.802 1.333 0.021 2.604 0.573 3.531 1.531 0.844 0.932 1.281 2.172 1.198 3.427 0.005 0.219 0.182 0.396 0.401 0.396l0.016 0.021c0.219 0 0.401-0.182 0.401-0.401 0.036-1.589-0.458-2.922-1.427-3.99-0.974-1.068-2.333-1.667-4.068-1.786-0.021 0-0.036 0-0.057 0zM17.115 9.995c-0.547-0.016-0.568 0.802-0.026 0.818 1.318 0.068 1.958 0.734 2.042 2.104 0.005 0.219 0.182 0.391 0.396 0.391h0.016c0.224-0.010 0.401-0.203 0.385-0.427-0.094-1.786-1.068-2.792-2.797-2.885-0.005 0-0.010 0-0.016 0z"></path>
</symbol>
<symbol id="telegram" viewBox="0 0 32 32">
<path d="M29.402 2.839l-28.351 10.989c-1.141 0.512-1.527 1.537-0.276 2.093l7.273 2.323 17.585-10.924c0.96-0.686 1.943-0.503 1.097 0.251l-15.104 13.746-0.474 5.817c0.439 0.898 1.244 0.902 1.757 0.456l4.179-3.974 7.157 5.387c1.662 0.989 2.567 0.351 2.924-1.462l4.694-22.342c0.487-2.232-0.344-3.215-2.462-2.36z"></path>
</symbol>
<symbol id="wattsup" viewBox="0 0 32 32">
<path d="M16.25 0.5c-8.55 0-15.5 6.95-15.5 15.5 0 3.95 1.475 7.7 4.175 10.575l-3.45 3.25v1.675h14.775c8.55 0 15.5-6.95 15.5-15.5s-6.95-15.5-15.5-15.5zM16.25 29.5h-11.525l3.075-2.875-1.075-1.075c-2.575-2.55-3.975-5.95-3.975-9.55 0-7.45 6.050-13.5 13.5-13.5s13.5 6.050 13.5 13.5-6.050 13.5-13.5 13.5z"></path>
<path d="M16.075 20.15c-1.6-1.025-2.95-2.425-3.925-4.075l1.675-1.675v-4.475h-5.4c0 7.825 6.325 14.15 14.15 14.15v-5.375h-5.050l-1.45 1.45z"></path>
</symbol>
<symbol id="youtube" viewBox="0 0 32 32">
<path d="M28.091 13.733l-21.294-13.417c-0.63-0.375-1.411-0.312-2.002-0.312-2.361 0-2.351 1.823-2.351 2.285v27.422c0 0.39-0.010 2.285 2.351 2.285 0.59 0 1.372 0.062 2.002-0.312l21.294-13.416c1.748-1.040 1.446-2.267 1.446-2.267s0.302-1.227-1.446-2.267z"></path>
</symbol>
<symbol id="ua" viewBox="0 0 32 32">
<path fill="#ffd500" style="fill: var(--color1, #ffd500)" d="M0 0h32v32h-32z"></path>
<path fill="#005bbb" style="fill: var(--color2, #005bbb)" d="M0 0h32v16h-32z"></path>
</symbol>
<symbol id="gb" viewBox="0 0 32 32">
<path fill="#012169" style="fill: var(--color3, #012169)" d="M0 0h32v32h-32z"></path>
<path fill="#fff" style="fill: var(--color4, #fff)" d="M32 0v4l-11.875 12 11.875 11.688v4.313h-4.188l-11.938-11.75-11.625 11.75h-4.25v-4.25l11.625-11.688-11.625-11.438v-4.625h3.875l12 11.75 11.625-11.75z"></path>
<path fill="#c8102e" style="fill: var(--color5, #c8102e)" d="M11.5 20.25l0.688 2.125-9.563 9.625h-2.625v-0.188l11.5-11.563zM19.25 19.5l3.375 0.5 9.375 9.188v2.813l-12.75-12.5zM32 0l-12 12.25-0.25-2.75 9.375-9.5h2.875zM0 0.063l12.063 11.813-3.688-0.5-8.375-8.313v-3z"></path>
<path fill="#fff" style="fill: var(--color4, #fff)" d="M11 0v32h10v-32h-10zM0 11v10h32v-10h-32z"></path>
<path fill="#c8102e" style="fill: var(--color5, #c8102e)" d="M0 13v6h32v-6h-32zM13 0v32h6v-32h-6z"></path>
</symbol>
</defs>
</svg>
